<?xml version="1.0" encoding="UTF-8"?><svg xmlns="http://www.w3.org/2000/svg" viewBox="0 0 148.6 39.71"><defs><style>.d{fill:#fff;}.e{fill:#222;}.f{fill:none;stroke:#fff;stroke-miterlimit:10;stroke-width:1.2px;}</style></defs><g id="a"/><g id="b"/><g id="c"><rect class="f" x="100.36" y="11.74" width="47.64" height="26.76" rx="2" ry="2"/><path class="d" d="M147.66,19.12h0v-6.93h-6.1c-1.18-.47-2.47-.74-3.82-.74h-27.13c-1.8,0-3.49,.47-4.96,1.28h-4.31v4.62c-.62,1.32-.98,2.79-.98,4.35v1.2h47.63v-1.2c0-.9-.13-1.76-.34-2.59Z"/><g><path class="d" d="M36.51,27.62c-.12-.24-.22-.46-.32-.68,1.49-2.26,2.44-4.87,2.67-7.69,.2-2.53-.19-4.98-1.08-7.24-1.46,1.78-3.67,2.92-6.15,2.92-4.38,0-7.93-3.55-7.93-7.93,0-2.29,.97-4.34,2.51-5.79-1.68-.59-3.47-.98-5.35-1.13C10.16-.79,.84,6.4,.05,16.13c-.32,3.95,.82,7.71,3.01,10.85,.05-.53,.14-1.18,.28-1.98,.04-.24,.08-.43,.11-.54l.55-2.71,.1-.47c-.68-.46-.96-.99-.85-1.61,.06-.37,.24-.71,.53-1,.28-.28,.64-.47,1.06-.56,.11-.45,.18-.75,.21-.89l.06-.08c.34-1.42,.69-2.79,1.04-4.11,.45-1.67,.77-2.83,.96-3.47,.18-.57,.3-.99,.34-1.24,.03-.19,.04-.51,.03-.98-.02-.15-.01-.32,.02-.51,.06-.33,.28-.61,.66-.84,.38-.21,.81-.32,1.3-.32,.63,0,1.17,.19,1.62,.56,.44,.36,.61,.8,.52,1.31,0-.01-.04,.16-.13,.51l-.24,.79c-.62,2.07-1.04,3.5-1.25,4.31-.51,1.91-.6,2.02-1.04,3.82l-.15,.63,.46-.02c2-.12,3.73-.18,5.18-.18,.42,0,.86,.02,1.32,.07l.16-.6,.18-.43c.69-2.66,1.28-4.88,1.77-6.67,.25-.9,.39-1.42,.42-1.58,.05-.27,.06-.56,.03-.88-.01-.26-.01-.43,0-.53,.06-.33,.26-.58,.61-.77,.36-.2,.79-.3,1.29-.3,.7,0,1.26,.18,1.69,.53,.41,.37,.57,.83,.48,1.36-.02,.14-.1,.43-.24,.86-.05,.22-.17,.61-.36,1.16l-.5,1.66c-.4,1.24-.69,2.05-1.63,5.96-.67,2.78-1.49,6.56-1.72,7.83-.15,.84-.23,1.42-.24,1.73-.01,.4,.01,.78,.08,1.16,.05,.16,.07,.32,.04,.47-.06,.32-.28,.59-.67,.82-.41,.23-.88,.35-1.41,.35-.84,0-1.42-.33-1.75-.98-.24-.47-.22-1.54,.08-3.22,.06-.37,.61-2.92,.85-4.12l.05-.18c-.78-.06-1.6-.09-2.45-.09-1.99,0-3.52,.09-4.56,.26-.16,.79-.7,3.35-.84,4.14-.13,.71-.2,1.22-.23,1.52-.03,.21-.01,.45,.03,.72l.1,.53c.02,.08,.02,.18,0,.28-.06,.33-.28,.6-.67,.8-.3,.17-.65,.27-1.04,.31,3.22,3.15,7.68,5.28,12.74,5.68,6.57,.53,12.62-1.98,16.49-6.23,1.01,.71,1.96,1.15,3.26,1.28,1.91,.19,3.31-.71,3.31-.71,0,0-3.72-.33-4.59-2.03m-5.33-9.13c-.15,.31-.4,.94-.73,1.9-.34,.94-.57,1.62-.68,2.03-.43,1.57-.69,2.89-.76,3.98-.05,.87,.15,1.59,.61,2.18,.14,.18,.2,.31,.2,.4-.01,.19-.26,.36-.76,.53-.51,.16-1.02,.23-1.55,.21-1.72-.08-2.52-1.02-2.41-2.8,.04-.59,.22-1.5,.54-2.73,.26-.98,.56-2.3,.88-3.95,.23-1.25,.35-2.03,.37-2.35v-.63c-.01-.05-.01-.15,0-.29,.02-.25,.21-.44,.58-.55,.34-.12,.82-.16,1.44-.13,.77,.04,1.39,.19,1.87,.47,.49,.28,.73,.6,.7,.96,0,.14-.11,.4-.31,.77"/><path class="d" d="M37.08,10.42l-.9,1.76c-.05,.1,.04,.26,.21,.34,.17,.09,.35,.07,.4-.03l.9-1.76c.06-.1-.04-.26-.21-.34-.17-.08-.35-.07-.4,.03"/><path class="d" d="M25.35,4.56c.05-.1-.04-.26-.21-.34-.17-.08-.35-.07-.4,.03l-.9,1.76c-.05,.1,.04,.26,.21,.34,.17,.09,.35,.07,.4-.03l.9-1.76Z"/><path class="d" d="M25.92,4.2c-.06,.07-.11,.15-.15,.23l-1.33,2.6c-.37,.72-.07,1.6,.67,1.98,.74,.38,1.63,.1,1.99-.62l1.32-2.6c.37-.72,.07-1.61-.67-1.98-.32-.16-.67-.2-.99-.14,1.52-2.43,4.72-3.31,7.38-1.95,2.67,1.36,3.82,4.48,2.74,7.14-.13-.31-.38-.59-.71-.76-.73-.38-1.63-.09-1.99,.62l-1.32,2.6c-.37,.72-.07,1.6,.67,1.98,.74,.37,1.63,.1,2-.62l1.33-2.6s.04-.09,.06-.14c.09-.14,.17-.27,.24-.42,1.53-2.99,.28-6.68-2.78-8.25-3.06-1.56-6.78-.4-8.31,2.59-.06,.11-.11,.22-.15,.33"/></g><g><g><path class="d" d="M54.91,21.23c-.13-.45-.31-.88-.52-1.31-2.22,1.48-5.29,3.54-7.58,4.54-1.99,.9-2.24,.88-2.24,.88,0,0,.24-1.2,.36-1.94,2.73-.83,6.48-3.36,8.57-4.97-.26-.35-.53-.68-.82-1.01-2.04,1.19-3.37,1.95-5.59,2.91-1.29,.5-2.17,.85-2.17,.85,0,0,.2-1.14,.29-1.93,3.09-.81,6.64-2.91,9.17-4.62h-5.94l.62-1.36h14.88l-.78,1.36h-4.49c.29,1.48,.71,2.89,1.21,4.18,1.52-.98,4.35-3.1,4.35-3.1l2.87,.21c-1.65,1.31-4.71,3.45-6.5,4.5,1.45,2.77,3.55,4.93,6.28,6.04-.12,.54,0,2.5,0,2.5,0,0-1.06-.38-2.3-1.15-4.71-2.96-7.07-6.98-8.16-12.49-.59,.4-1.21,.78-1.85,1.13,1.96,1.86,3.12,4.93,2.93,8.3l-.09,.73c-.15,1.81-1.85,4.43-3.05,4.43-1.36,0-1.58,0-3.16,0-.68,0-1.92,0-1.92,0,.25-.49,.66-1.31,.78-1.66,0,0,1.35,.21,2.78,.17,1.61,0,2.41-1.69,2.57-3.57,.04-.53,.04-1.06-.01-1.58-2.81,2.14-5.88,4.1-9.14,5.18l-2.2,.73s.42-1.44,.47-1.86c3.79-1.08,7.78-3.59,10.4-6.08Z"/><polygon class="d" points="46.17 9.11 55.42 9.11 55.63 6.69 58.7 6.13 57.96 9.11 67.41 9.11 67 13.89 64.47 13.89 64.76 10.47 48.54 10.47 48.25 13.89 45.76 13.89 46.17 9.11"/></g><path class="d" d="M72.93,17.58h-2.5l.67-1.27h3.36c.71-.58,1.4-1.24,2.02-1.9h-6.83l.46-1.32h4.53l.23-2.63h-3.87l.47-1.27h3.51l.24-2.78,2.58-.54-.39,3.32h2.97c.4-.68,1.35-2.95,1.35-2.95h2.39c-1.04,2.08-2.55,5.11-3.89,6.84h2.54c.95-2,2.89-6.82,2.89-6.82l2.5-.03c-.63,1.96-1.42,3.73-1.95,5.09h9.07l-.76,1.76h-2.55c-1.01,4.07-2.28,6.6-4.07,9.26,.7,1.53,3.24,4.74,6.8,6.83-1.53,0-3.71,0-3.71,0,0,0-2.2-1.58-4.55-5.22-1.54,1.7-4.74,5.22-4.74,5.22h-3.53c2.3-1.56,5.4-4.61,7.06-6.9-.72-1.78-1.22-3.82-1.57-6.02-.37,.63-.76,1.22-1.17,1.73l-.6,.76-.71-.76c-.07-.07-.18-.17-.32-.29-1.07,1.05-2.42,2.07-3.56,2.78l-.1,1.1c1.43-.17,5.41-.63,5.41-.63l-.12,1.34s-3.76,.44-5.41,.63l-.92,4.97c-.06,.73-.17,1.3-.89,1.3-1.37,0-5.89,0-5.86,0,.21-.39,.46-.79,.79-1.44,1.33,.18,2.88,.2,3.54-.31,.69-.54,.87-4.2,.87-4.2l-5.82,.69,.38-1.45s3.57-.39,5.56-.61l.39-2.15,.75-.24c.83-.56,1.62-1.24,2.31-1.9h-2.14c-3.76,2.81-7.43,4.16-7.43,4.16,0,0,.16-1.12,.35-2.14,1.51-.67,2.74-1.12,3.96-2.02Zm4.73-4.48c.71-.83,1.32-1.7,1.94-2.63h-2.29l-.23,2.63h.58Zm3.23,3.22c.44-.58,.81-1.22,1.19-1.9h-2.78c-.6,.68-1.23,1.29-1.87,1.9h3.46Zm6,3.29c.98-1.61,1.86-3.65,2.54-6.41h-3.75c.21,2.58,.59,4.64,1.21,6.41Z"/></g><g><path class="d" d="M48.26,36.95v-.05c-.19-.02-.4-.02-.62-.02-.52,0-.91,.02-1.18,.07-.04,.21-.08,.41-.12,.62-.03,.18-.05,.32-.06,.4,0,.05,0,.12,0,.19l.03,.14s0,.04,0,.07c-.01,.08-.07,.15-.17,.21-.1,.06-.23,.09-.37,.09-.25,0-.41-.12-.48-.35-.03-.13,0-.41,.07-.85,.01-.06,.02-.11,.03-.14l.04-.25,.03-.12c-.18-.12-.25-.26-.22-.42,.02-.1,.06-.18,.14-.26,.07-.07,.17-.12,.28-.15,.03-.12,.05-.19,.05-.23l.12-.48c.09-.37,.18-.72,.27-1.07,.12-.43,.2-.73,.25-.9,.05-.15,.08-.26,.09-.32,0-.05,.01-.13,0-.25,0-.04,0-.08,0-.13,.02-.09,.07-.16,.17-.22,.1-.05,.21-.08,.34-.08,.16,0,.3,.05,.42,.14,.11,.09,.16,.21,.14,.34,0,0-.01,.04-.03,.13l-.06,.2c-.16,.53-.27,.91-.32,1.12-.13,.5-.26,.98-.37,1.45l-.04,.16h.12c.52-.03,.97-.05,1.34-.05,.11,0,.22,0,.34,.02l.04-.16,.14-.57c.18-.69,.33-1.26,.46-1.73,.07-.23,.1-.37,.11-.41,.01-.07,.01-.15,0-.23,0-.07,0-.11,0-.14,.01-.08,.07-.15,.16-.2,.09-.05,.21-.08,.33-.08,.18,0,.33,.05,.44,.14,.11,.1,.15,.21,.12,.35,0,.04-.03,.11-.06,.22-.01,.06-.04,.16-.09,.3l-.13,.43c-.11,.32-.28,.99-.52,2-.17,.72-.29,1.24-.35,1.57-.04,.22-.06,.37-.06,.45,0,.1,0,.2,.02,.3,.01,.04,.02,.08,.01,.12-.01,.08-.07,.15-.17,.21-.11,.06-.23,.09-.37,.09-.22,0-.37-.08-.45-.25-.06-.12-.06-.4,.02-.83,.02-.1,.06-.3,.12-.61Z"/><path class="d" d="M51.35,33.62c.04-.19,.14-.35,.3-.47,.15-.12,.33-.18,.53-.18,.25,0,.45,.08,.61,.24,.15,.17,.21,.35,.18,.57-.03,.21-.12,.37-.27,.5-.15,.14-.33,.2-.54,.2-.24,0-.45-.09-.61-.26-.16-.17-.23-.37-.2-.6Z"/><path class="d" d="M51.69,38.67c.14,0,.27-.02,.4-.07,.13-.05,.19-.1,.19-.15,0-.02-.02-.06-.05-.1-.12-.15-.19-.33-.18-.56,0-.28,.06-.63,.16-1.04,.02-.11,.07-.29,.16-.53,.08-.25,.13-.42,.17-.5,.05-.1,.07-.17,.07-.2,0-.09-.06-.17-.19-.24-.13-.07-.29-.1-.49-.1-.16,0-.28,.02-.37,.05-.09,.03-.14,.08-.15,.15,0,.04,0,.06,0,.07v.16c0,.08-.02,.29-.07,.61-.07,.43-.13,.77-.19,1.03-.07,.32-.11,.56-.11,.71-.01,.46,.21,.7,.65,.7Z"/></g><g><path class="d" d="M32.63,37.79c.03-.15,.09-.28,.19-.39,.1-.11,.2-.16,.32-.16,.07,0,.13,.05,.19,.14,.11,.17,.24,.3,.39,.38,.14,.08,.33,.12,.56,.12,.27,0,.49-.04,.67-.11,.17-.07,.27-.16,.29-.28,.01-.07,0-.14-.07-.2-.06-.06-.17-.12-.32-.2,0,0-.02-.01-.05-.02-.03-.01-.06-.03-.09-.05-.02-.01-.06-.03-.1-.05-.05-.02-.09-.04-.15-.07-.25-.13-.4-.21-.44-.23-.11-.06-.18-.11-.23-.14-.06-.04-.13-.09-.19-.16-.3-.29-.41-.63-.34-1.04,.04-.21,.13-.41,.28-.6,.16-.2,.39-.4,.69-.62,.37-.26,.78-.51,1.22-.74,.44-.22,.79-.34,1.05-.34,.24,0,.4,.09,.49,.28,.09,.19,.1,.46,.03,.82-.06,.36-.17,.66-.31,.88-.14,.21-.32,.32-.54,.32-.1,0-.18-.03-.24-.09-.07-.06-.09-.13-.08-.2,0-.02,.04-.07,.09-.13,.1-.11,.16-.27,.2-.48,.05-.27,0-.4-.12-.4-.2,0-.52,.14-.96,.43-.57,.37-.87,.68-.92,.92-.02,.13,.03,.24,.15,.35,.12,.11,.4,.27,.83,.5,.31,.16,.52,.28,.62,.36,.37,.28,.52,.58,.46,.9-.05,.26-.19,.48-.43,.67-.18,.14-.42,.25-.73,.35-.3,.09-.58,.14-.86,.14h-.24c-.3,0-.55-.05-.77-.12-.21-.07-.37-.17-.47-.3-.1-.13-.14-.27-.11-.43Z"/><path class="d" d="M38.46,38.24c-.31,.21-.63,.32-.96,.32-.29,0-.53-.08-.69-.25-.17-.16-.23-.37-.18-.62,.03-.19,.13-.39,.28-.6,.15-.21,.33-.39,.55-.54,.4-.27,.87-.45,1.41-.55,.02-.09,.04-.16,.05-.21,.03-.18,.03-.3,.01-.37-.02-.08-.08-.11-.17-.11s-.21,.05-.33,.14-.24,.21-.33,.34c-.1,.15-.22,.23-.37,.23-.1,0-.18-.04-.24-.1-.06-.07-.09-.14-.07-.24,.02-.09,.08-.2,.18-.34,.1-.13,.23-.26,.39-.39,.34-.27,.67-.4,.97-.4s.52,.11,.66,.34c.15,.23,.19,.52,.12,.87-.02,.09-.04,.2-.07,.32l-.08,.43-.07,.35s-.03,.15-.07,.39l-.02,.14s-.01,.05-.02,.09c-.06,.31-.06,.5-.02,.57l.05,.08s0,.03,0,.06c-.02,.1-.1,.2-.24,.3-.14,.1-.27,.15-.39,.15-.2,0-.32-.14-.36-.41Zm.25-1.32l.03-.15c-.19,.01-.38,.06-.57,.14-.18,.07-.35,.18-.48,.3-.13,.12-.21,.25-.23,.37-.01,.06,0,.11,.04,.15,.04,.04,.1,.06,.17,.06,.12,0,.25-.03,.42-.1,.16-.07,.29-.15,.41-.24,.06-.05,.1-.11,.13-.18,.03-.07,.05-.19,.08-.35Z"/><path class="d" d="M40.82,37.94l.07-.14c-.09-.26-.16-.52-.22-.76-.07-.3-.14-.62-.21-.98-.1-.61-.13-.99-.11-1.15,.02-.11,.08-.2,.17-.26,.09-.07,.21-.1,.35-.1,.21,0,.34,.07,.4,.2,.02,.04,.02,.12,0,.26-.03,.16-.01,.43,.05,.8,.03,.22,.09,.49,.17,.82,.05-.08,.07-.13,.08-.14l.25-.45c.34-.6,.59-1,.76-1.2,.14-.16,.28-.24,.43-.24,.12,0,.23,.04,.33,.12,.1,.08,.15,.16,.13,.25,0,.04-.04,.1-.09,.16l-.14,.16c-.1,.1-.31,.44-.65,1.01-.05,.08-.09,.15-.12,.21-.03,.05-.07,.12-.12,.2-.09,.15-.18,.32-.28,.49-.09,.16-.17,.32-.26,.47-.13,.24-.19,.37-.2,.39-.29,.58-.46,.99-.5,1.22,0,.02,0,.05,0,.1,0,.07,0,.11,0,.12,0,.06-.04,.1-.1,.14-.05,.04-.12,.05-.2,.05-.16,0-.29-.06-.39-.17-.1-.11-.14-.24-.11-.39,.04-.23,.21-.63,.51-1.21Z"/><path class="d" d="M55.44,35.57c-.19,0-.32-.02-.37-.02-.05,0-.11-.02-.16-.05-.13-.07-.18-.21-.14-.41,.02-.1,.05-.19,.1-.26,.05-.08,.1-.12,.14-.12,0,0,.02,0,.04,.01,.1,.03,.25,.05,.45,.05-.02,0,.03,0,.17,0,.01-.05,.03-.15,.05-.28,.05-.27,.07-.46,.07-.57,0-.04,0-.08,0-.12,.01-.07,.06-.13,.15-.19,.09-.05,.19-.07,.3-.07,.15,0,.26,.04,.34,.11,.07,.07,.1,.17,.08,.29-.01,.07-.05,.22-.11,.45-.03,.12-.06,.23-.08,.33,.25-.04,.44-.05,.57-.05,.18,0,.26,.09,.23,.27-.02,.08-.07,.22-.15,.42-.03,.06-.05,.11-.07,.13-.02,.02-.05,.03-.1,.03,.02,0-.02,0-.13,0-.07,0-.11,0-.12,0-.06,0-.18,0-.35,.02h-.07c-.05,.21-.1,.43-.16,.68l-.02,.13s0,.04-.01,.07c0,.03-.01,.05-.02,.07,0,.04-.02,.09-.03,.16-.05,.25-.08,.42-.1,.52-.1,.55-.13,.93-.09,1.13,.01,.04,.02,.07,0,.11-.01,.07-.06,.13-.15,.19-.09,.06-.18,.09-.29,.09-.21,0-.35-.11-.4-.32-.06-.21-.04-.56,.04-1.05,.04-.21,.12-.6,.26-1.19,.02-.08,.06-.25,.12-.52Z"/><path class="d" d="M58.87,34.69c.14-.09,.28-.14,.44-.14s.3,.04,.42,.11c.11,.07,.2,.17,.27,.31,.07,.13,.11,.29,.13,.49,.02,.19,0,.41-.04,.64-.06,.36-.17,.7-.32,1.04-.15,.33-.33,.62-.55,.87-.17,.2-.36,.36-.57,.47-.21,.11-.43,.17-.65,.17-.25,0-.47-.06-.63-.18-.17-.12-.28-.3-.34-.52-.06-.23-.06-.5,0-.81,.03-.2,.09-.4,.16-.61,.07-.21,.16-.43,.26-.64,.1-.21,.21-.41,.33-.59,.31-.49,.58-.73,.82-.73,.11,0,.19,.04,.26,.13Zm-.52,1.1c-.14,.27-.26,.53-.35,.77-.09,.24-.15,.47-.19,.68-.04,.22-.03,.38,.02,.49,.05,.12,.13,.17,.26,.17,.11,0,.23-.05,.35-.15,.13-.1,.25-.24,.36-.42,.12-.19,.22-.39,.3-.61,.09-.24,.15-.47,.19-.7,.04-.23,.04-.41,0-.53-.04-.12-.12-.18-.25-.18-.08,0-.16,.03-.24,.08-.08,.05-.14,.12-.2,.2l-.07,.12c-.04,.07-.08,.1-.13,.1-.02,0-.04,0-.06-.02Z"/><path class="d" d="M62.87,35.57c-.19,0-.32-.02-.37-.02-.05,0-.11-.02-.16-.05-.13-.07-.18-.21-.14-.41,.02-.1,.05-.19,.1-.26,.05-.08,.1-.12,.14-.12,0,0,.02,0,.04,.01,.1,.03,.25,.05,.45,.05-.02,0,.03,0,.17,0,.01-.05,.03-.15,.05-.28,.05-.27,.07-.46,.07-.57,0-.04,0-.08,0-.12,.01-.07,.06-.13,.15-.19,.09-.05,.19-.07,.3-.07,.15,0,.26,.04,.34,.11,.07,.07,.1,.17,.08,.29-.01,.07-.05,.22-.11,.45-.03,.12-.06,.23-.08,.33,.25-.04,.44-.05,.57-.05,.18,0,.26,.09,.23,.27-.02,.08-.07,.22-.15,.42-.03,.06-.05,.11-.07,.13-.02,.02-.05,.03-.1,.03,.02,0-.02,0-.13,0-.07,0-.11,0-.12,0-.06,0-.18,0-.35,.02h-.07c-.05,.21-.1,.43-.16,.68l-.02,.13s0,.04-.01,.07c0,.03-.01,.05-.02,.07,0,.04-.02,.09-.03,.16-.05,.25-.08,.42-.1,.52-.1,.55-.13,.93-.09,1.13,.01,.04,.02,.07,0,.11-.01,.07-.06,.13-.15,.19-.09,.06-.18,.09-.29,.09-.21,0-.35-.11-.4-.32-.06-.21-.04-.56,.04-1.05,.04-.21,.12-.6,.26-1.19,.02-.08,.06-.25,.12-.52Z"/><path class="d" d="M65.75,35.8l.1-.15c.29-.41,.52-.69,.69-.85,.18-.17,.34-.26,.48-.26,.22,0,.35,.24,.37,.71,0,.09,.01,.23,0,.41-.01,.24-.02,.4-.03,.48-.01,.13-.03,.29-.05,.47-.02,.17-.05,.34-.08,.51-.04,.21-.08,.42-.12,.62-.05,.21-.1,.39-.15,.54-.05,.14-.11,.24-.18,.3-.08,.06-.18,.1-.3,.1-.13,0-.24-.03-.32-.1-.09-.07-.12-.14-.11-.22,0-.03,.03-.09,.08-.18,.1-.18,.18-.46,.25-.83,.09-.53,.14-.93,.14-1.2,0-.16-.02-.24-.06-.24-.05,0-.22,.2-.49,.62-.2,.29-.36,.58-.5,.87-.14,.28-.22,.51-.25,.69v.08c-.03,.15-.03,.23-.04,.24-.02,.09-.07,.16-.17,.22-.1,.07-.2,.1-.32,.1-.31,0-.43-.2-.36-.59,.02-.13,.06-.29,.11-.5l.18-.64,.21-.77,.22-.81,.23-.87c.1-.37,.16-.66,.2-.86,.01-.08,.02-.18,.03-.32,0-.08,.01-.12,.01-.12,.02-.09,.07-.16,.16-.22,.09-.06,.2-.08,.32-.08,.17,0,.28,.05,.34,.15,.06,.1,.07,.27,.03,.5-.05,.27-.13,.59-.25,.96l-.18,.58c-.04,.13-.08,.26-.12,.39-.04,.14-.06,.24-.07,.27Z"/><path class="d" d="M68.55,37.44c0,.15,.05,.26,.12,.33,.08,.07,.18,.11,.33,.11,.15,0,.31-.04,.48-.12,.18-.08,.34-.19,.48-.32,.16-.14,.26-.29,.3-.44,.04-.14,.13-.21,.28-.21,.13,0,.24,.04,.31,.12,.07,.09,.1,.19,.07,.32-.05,.28-.28,.57-.68,.89-.44,.34-.88,.51-1.32,.51-.26,0-.49-.06-.69-.17-.19-.11-.33-.27-.42-.48-.09-.21-.11-.43-.06-.69,.05-.29,.17-.6,.35-.93,.18-.34,.4-.64,.65-.93,.24-.27,.48-.48,.73-.63,.24-.15,.47-.22,.67-.22,.24,0,.42,.09,.54,.26,.12,.18,.16,.4,.12,.65-.04,.2-.12,.41-.25,.62-.13,.2-.3,.39-.5,.57-.21,.18-.44,.33-.7,.46-.27,.14-.53,.23-.8,.3Zm.28-.82c.3-.15,.58-.34,.83-.59,.26-.24,.4-.44,.43-.6,0-.04,0-.07,0-.09-.02-.02-.04-.03-.08-.03-.14,0-.33,.14-.56,.4-.24,.27-.45,.57-.61,.91Z"/><path class="d" d="M76.08,35.05l-.09,.16c-.26,.47-.43,.76-.49,.88-.04,.06-.12,.23-.27,.5-.45,.85-.69,1.37-.72,1.56,0,.02,0,.05,0,.1v.12s0,.02,0,.05c-.01,.07-.05,.13-.12,.17-.07,.04-.16,.06-.26,.06-.16,0-.28-.03-.35-.1-.08-.07-.13-.21-.16-.42-.03-.21-.06-.51-.07-.92-.02-.39-.02-.82-.01-1.29,0-.48,.02-.92,.05-1.33,.03-.43,.06-.76,.1-.98,.03-.19,.09-.33,.16-.41,.07-.08,.17-.12,.29-.12,.12,0,.22,.03,.31,.08,.09,.06,.15,.13,.2,.21,.04,.09,.05,.18,.03,.28,0-.03-.02,.07-.06,.29-.02,.08-.04,.18-.06,.29-.06,.32-.1,.69-.13,1.14-.02,.41-.03,.75,0,1.01l.07-.13,.32-.6c.18-.35,.38-.71,.58-1.07,.19-.33,.35-.62,.5-.86,.04-.06,.08-.13,.12-.21,.08-.16,.14-.26,.18-.3,.08-.08,.19-.12,.31-.12,.1,0,.19,.02,.29,.07,.1,.04,.17,.1,.22,.17,.05,.07,.08,.13,.09,.2,0,.08,0,.2-.02,.35-.04,.25-.06,.62-.05,1.09,0,.52,.01,.92,.04,1.21,0,.1,.02,.23,.05,.4l.05-.12,.14-.31c.38-.84,.75-1.59,1.11-2.25,.05-.08,.09-.16,.12-.23l.1-.21c.1-.22,.25-.34,.43-.34,.16,0,.29,.05,.39,.14,.1,.1,.13,.21,.11,.35-.01,.07-.07,.19-.19,.38-.19,.3-.47,.82-.84,1.54-.16,.32-.28,.56-.37,.73-.11,.23-.2,.43-.27,.58-.08,.19-.19,.44-.32,.76-.14,.35-.22,.57-.24,.67,0,.02,0,.03,0,.04v.04s-.01,.07,0,.06c-.01,.07-.06,.12-.14,.16-.09,.04-.18,.07-.29,.07-.14,0-.24-.03-.32-.08-.07-.05-.14-.14-.18-.27-.05-.12-.08-.31-.11-.57-.04-.36-.08-.72-.11-1.1-.03-.41-.05-.71-.06-.89,0-.05,0-.1,0-.15,0-.05,0-.13,0-.23,0-.1,0-.21,0-.31Z"/><path class="d" d="M80.92,34.69c.14-.09,.28-.14,.44-.14s.3,.04,.42,.11c.11,.07,.2,.17,.27,.31,.07,.13,.11,.29,.13,.49,.02,.19,0,.41-.04,.64-.06,.36-.17,.7-.32,1.04-.15,.33-.33,.62-.55,.87-.17,.2-.36,.36-.57,.47-.21,.11-.43,.17-.65,.17-.25,0-.47-.06-.63-.18-.17-.12-.28-.3-.34-.52-.06-.23-.06-.5,0-.81,.03-.2,.09-.4,.16-.61,.07-.21,.16-.43,.26-.64,.1-.21,.21-.41,.33-.59,.31-.49,.58-.73,.82-.73,.11,0,.19,.04,.26,.13Zm-.52,1.1c-.14,.27-.26,.53-.35,.77-.09,.24-.15,.47-.19,.68-.04,.22-.03,.38,.02,.49,.05,.12,.13,.17,.26,.17,.11,0,.23-.05,.35-.15,.13-.1,.25-.24,.36-.42,.12-.19,.22-.39,.3-.61,.09-.24,.15-.47,.19-.7,.04-.23,.04-.41,0-.53-.04-.12-.12-.18-.25-.18-.08,0-.16,.03-.24,.08-.08,.05-.14,.12-.2,.2l-.07,.12c-.04,.07-.08,.1-.13,.1-.02,0-.04,0-.06-.02Z"/><path class="d" d="M83.69,35.28v.05c.47-.39,.93-.59,1.35-.59,.16,0,.27,.04,.36,.11,.08,.08,.11,.18,.09,.3-.02,.14-.09,.26-.21,.37-.12,.12-.24,.17-.36,.17-.02,0-.04,0-.07,0l-.1-.03s-.06-.01-.09-.01c-.12,0-.26,.05-.43,.15-.16,.1-.31,.23-.44,.39-.13,.16-.23,.34-.32,.55-.08,.2-.15,.45-.2,.75-.03,.17-.05,.3-.05,.4,0,.1,0,.2,.02,.3,0,.07,.01,.12,0,.15-.01,.08-.08,.15-.19,.22-.12,.07-.23,.1-.35,.1-.13,0-.22-.04-.28-.12-.06-.08-.09-.22-.08-.4,0-.2,.04-.46,.09-.79,.04-.22,.08-.42,.12-.59l.14-.63c.1-.45,.16-.75,.19-.9,.02-.12,.03-.23,.03-.34,0-.04,0-.08,0-.12,.02-.09,.08-.16,.18-.22,.11-.06,.23-.1,.35-.1,.26,0,.37,.11,.33,.32v.05s-.02,.02-.02,.05l-.06,.23s-.01,.06-.03,.14c0,.02,0,.04-.01,.05Z"/><path class="d" d="M86.17,38.3c-.02,.09-.07,.17-.17,.23-.1,.07-.21,.1-.32,.1-.16,0-.27-.07-.35-.21-.07-.13-.08-.33-.03-.61,0-.02,.02-.11,.06-.28,0-.04,.01-.07,.02-.09l.02-.1,.12-.54c.06-.32,.19-.85,.37-1.59l.2-.81c.07-.27,.11-.48,.14-.61,.02-.09,.02-.16,.01-.22,0-.08-.01-.13,0-.15,.01-.08,.09-.16,.21-.22,.12-.07,.25-.1,.38-.1s.22,.03,.28,.1c.06,.07,.09,.16,.07,.28,0,.03-.02,.1-.06,.22-.06,.22-.14,.49-.23,.79-.12,.42-.24,.94-.38,1.56-.06,.26-.1,.46-.13,.6-.03,.15-.06,.27-.08,.36-.01,.06-.04,.18-.07,.34-.04,.22-.06,.38-.07,.49-.01,.11-.01,.2,0,.26l.02,.1s0,.05,0,.09Z"/><path class="d" d="M89.5,34.85c.15-.44,.26-.81,.31-1.11,0-.03,0-.05,0-.06l.02-.1c.02-.09,.06-.16,.15-.21,.08-.05,.18-.07,.3-.07,.14,0,.25,.04,.33,.12,.08,.08,.11,.18,.08,.32,0,.05-.05,.17-.11,.37-.03,.09-.06,.17-.07,.22-.02,.05-.04,.13-.07,.22-.03,.09-.06,.22-.11,.38-.12,.41-.21,.76-.28,1.06-.07,.29-.12,.54-.16,.75-.1,.55-.13,1.01-.09,1.36,0,.07,0,.12,0,.15-.01,.08-.07,.15-.17,.22-.1,.07-.2,.1-.31,.1-.08,0-.15-.02-.21-.07-.06-.04-.1-.11-.13-.2-.02-.08-.02-.25,0-.51-.1,.15-.2,.28-.3,.38-.1,.11-.21,.2-.32,.28-.11,.08-.22,.13-.33,.17-.12,.04-.23,.06-.33,.06-.21,0-.38-.06-.52-.18-.14-.12-.24-.29-.28-.51-.05-.22-.05-.47,0-.74,.05-.29,.15-.59,.29-.92,.15-.33,.32-.63,.51-.9,.21-.29,.42-.51,.62-.65,.21-.15,.41-.22,.61-.22,.24,0,.44,.11,.59,.33Zm-.43,1.16c.04-.2,.04-.37,0-.49-.04-.12-.11-.18-.21-.18-.2,0-.44,.27-.72,.8-.24,.44-.39,.86-.46,1.24-.06,.36-.01,.54,.15,.54,.07,0,.18-.06,.3-.17,.13-.12,.25-.26,.37-.42,.13-.19,.25-.41,.36-.66,.1-.24,.17-.46,.2-.65Z"/><path class="d" d="M92.12,38.19c.03-.16,.13-.3,.3-.41,.16-.11,.35-.17,.57-.17,.07,0,.14,.01,.21,.03,.06,.02,.12,.05,.17,.09,.04,.03,.07,.08,.09,.13,.02,.05,.02,.11,0,.18-.03,.16-.13,.3-.3,.42-.18,.12-.37,.18-.57,.18-.17,0-.3-.04-.38-.13-.09-.08-.12-.2-.09-.34Zm.47-1.8c.03-.19,.11-.5,.23-.9,.1-.33,.22-.76,.36-1.31,.1-.41,.16-.67,.18-.78l.03-.21s0-.05,.01-.1c.02-.08,.06-.15,.15-.19,.08-.04,.18-.07,.31-.07,.16,0,.28,.04,.37,.12,.09,.08,.13,.18,.1,.3,0,.05-.04,.13-.1,.26-.05,.1-.12,.31-.24,.64-.11,.31-.19,.54-.23,.68-.16,.52-.27,.96-.34,1.32-.05,.29-.04,.52,.03,.71,.02,.06,.03,.1,.02,.13-.01,.06-.07,.12-.18,.19-.11,.06-.22,.09-.33,.09-.36,0-.48-.29-.38-.88Z"/></g><g><path class="d" d="M118.79,26.75h5.4v.82l-3.72,7.61-1.32-.64,3.09-6.32h-3.45v-1.47Z"/><path class="d" d="M128.55,26.54h1.56v5.3h.73v1.45h-.73v1.69h-1.53v-1.69h-3.59v-1.45l3.56-5.3Zm.03,5.3v-2.76l-1.88,2.76h1.88Z"/><path class="d" d="M133.31,26.75h3.86v1.45h-2.69l-.34,1.49c.09-.03,.18-.05,.27-.06,.09-.01,.17-.02,.26-.02,.75,0,1.37,.25,1.86,.76,.49,.51,.74,1.16,.74,1.96s-.27,1.48-.82,2.03c-.55,.55-1.21,.83-1.99,.83-.7,0-1.3-.2-1.81-.6-.5-.4-.83-.95-.99-1.64h1.64c.13,.26,.29,.45,.5,.58,.21,.13,.44,.2,.69,.2,.35,0,.64-.12,.88-.37,.24-.25,.36-.57,.36-.96s-.11-.69-.34-.94c-.23-.24-.5-.37-.82-.37-.17,0-.34,.04-.51,.13-.17,.09-.33,.21-.49,.39l-1.28-.29,1-4.57Z"/><path class="d" d="M140.04,29.4h-1.53c.04-.89,.32-1.59,.84-2.1s1.18-.76,1.99-.76c.5,0,.94,.11,1.32,.32,.38,.21,.69,.52,.92,.91,.23,.4,.34,.8,.34,1.21,0,.49-.14,1.01-.42,1.58-.28,.56-.79,1.23-1.53,2l-.92,.97h2.93v1.45h-5.7v-.75l2.55-2.6c.62-.62,1.02-1.12,1.23-1.5,.2-.38,.31-.72,.31-1.03s-.11-.58-.32-.79c-.21-.21-.48-.31-.81-.31s-.62,.13-.84,.37c-.22,.25-.34,.59-.36,1.02Z"/></g><g><path class="e" d="M107.81,18.37c.67,.58,1.49,1.08,2.48,1.47l-.44,.69c-.99-.41-1.84-.96-2.58-1.65-.94,.76-1.91,1.31-2.94,1.67l-.41-.67c1.03-.34,1.97-.83,2.82-1.48-.74-.72-1.42-1.93-2.05-3.64l.67-.2c.54,1.51,1.18,2.63,1.91,3.37,.95-1,1.51-2.13,1.67-3.39l.74,.14c-.24,1.44-.87,2.68-1.88,3.7Z"/><path class="e" d="M112.55,17.6c.39-.47,.69-.91,.92-1.32h-1.07v-.56h1.75v.48c-.25,.48-.53,.91-.84,1.31h.82v.4c-.04,.24-.13,.57-.28,.99,0,.13,.14,.32,.42,.56,.28,.24,1.11,.36,2.5,.36,.7,0,1.34-.03,1.92-.07l-.11,.65h-1.18c-1.54,0-2.51-.06-2.9-.18-.39-.12-.7-.38-.92-.8-.27,.49-.54,.84-.81,1.07l-.43-.49c.59-.49,.97-1.14,1.14-1.96h-.94v-.46Zm.94-2.02c-.35-.38-.68-.69-.98-.92l.39-.4c.4,.28,.74,.56,1.01,.84l-.42,.47Zm2.67-.48v-.9h.61v.9h1.7v4.02h-4v-4.02h1.69Zm0,1.63v-1.06h-1.09v1.06h1.09Zm0,1.82v-1.26h-1.09v1.26h1.09Zm1.71-1.82v-1.06h-1.1v1.06h1.1Zm0,1.82v-1.26h-1.1v1.26h1.1Z"/><path class="e" d="M123.78,15.42v-1.23h.72v1.23h2.54v.64h-2.54v1.43h2.19v.65h-2.19v1.6h2.65v.64h-6.23v-.64h2.86v-1.6h-2.15v-.65h2.15v-1.43h-1.65c-.27,.48-.56,.92-.9,1.32l-.45-.59c.65-.7,1.06-1.52,1.24-2.44l.63,.22c-.03,.18-.11,.46-.26,.84h1.39Z"/><path class="e" d="M130.52,15.17c-.24,.05-.59,.08-1.05,.11l-.14-.57c1.01-.05,1.87-.21,2.6-.49l.23,.55c-.32,.11-.66,.2-1.02,.28v.95h1.03v.58h-1.03v.06c.5,.47,.88,.84,1.14,1.12l-.38,.58c-.13-.19-.27-.36-.4-.51-.12-.14-.24-.29-.36-.45v3.13l-.62,.03v-2.77c-.17,.43-.48,.94-.92,1.51l-.38-.61c.57-.64,.99-1.34,1.28-2.09h-1.23v-.58h1.26v-.84Zm1.57,3.87v-.63l2.26-.34v-3.88h.63v3.81l.61-.1v.61l-.61,.1v1.94h-.63v-1.86l-2.26,.34Zm1.46-1.37c-.46-.39-.87-.69-1.23-.9l.4-.45c.34,.18,.75,.45,1.25,.83l-.42,.52Zm.12-1.64c-.5-.4-.9-.7-1.21-.88l.4-.45c.29,.16,.7,.44,1.23,.82l-.43,.51Z"/><path class="e" d="M140.18,16.19h-.8v1.19c.36-.12,.62-.22,.79-.3v.66c-.14,.08-.4,.18-.79,.31v1.65c0,.32-.05,.53-.14,.63-.1,.11-.31,.16-.65,.16h-.53l-.16-.68,.59,.02c.15,0,.22-.07,.22-.22v-1.38c-.38,.1-.68,.18-.9,.23l-.16-.73c.39-.05,.75-.12,1.07-.2v-1.36h-1v-.61h1v-1.38h.67v1.38h.8v-.43h1.45v-.95h.67v.95h1.59v.61h-1.59v.9h1.36v.56c-.06,.24-.21,.56-.45,.95-.23,.39-.48,.7-.74,.92,.45,.37,.96,.63,1.53,.79l-.34,.63c-.59-.19-1.15-.53-1.67-1.01-.71,.54-1.39,.88-2.04,1.02l-.37-.61c.65-.14,1.3-.43,1.94-.87-.35-.35-.69-.83-1.02-1.44l.56-.22c.31,.55,.62,.98,.93,1.29,.46-.36,.78-.83,.98-1.4h-2.68v-.62h1.34v-.9h-1.45v.43Z"/></g><g><path class="d" d="M105.04,27.54c0,.77-.15,1.42-.42,1.94l-.46-.32c.1-.2,.19-.47,.26-.82,.07-.35,.11-1.11,.11-2.28v-1.91h1.74v4.76c0,.33-.14,.49-.42,.49h-.58l-.09-.53,.46,.02c.08,0,.12-.04,.12-.12v-1.41c-.14,.16-.3,.34-.47,.52l-.24-.35Zm.71-2.88h-.71v.7l.4-.13c.12,.23,.22,.47,.31,.73v-1.3Zm-.02,1.44l-.36,.16c-.1-.28-.2-.57-.32-.85v1.98c.23-.17,.45-.41,.68-.7v-.6Zm3.17-.66c0,.21,.09,.32,.27,.32h.44v.53h-.65c-.21,0-.37-.04-.47-.13-.1-.09-.15-.28-.15-.58v-.92h-.84v.2c0,.69-.19,1.25-.58,1.66l-.49-.34c.16-.16,.28-.35,.38-.57,.09-.22,.14-.6,.14-1.12v-.35h1.96v1.3Zm.42,1.56c-.21,.68-.49,1.19-.84,1.52,.32,.19,.72,.35,1.19,.49l-.25,.5c-.52-.13-.97-.33-1.36-.6-.41,.28-.86,.48-1.33,.59l-.28-.48c.47-.11,.86-.28,1.18-.5-.24-.25-.49-.64-.73-1.19l.47-.16c.17,.4,.38,.74,.65,1.01,.29-.3,.51-.67,.66-1.11h-2.12v-.52h2.75v.44Z"/><path class="d" d="M112.43,28.39c-.44,.35-.97,.64-1.59,.87l-.3-.53c.57-.12,1.08-.37,1.52-.75l.37,.41Zm3.56-.99v.49h-2.36v.85c0,.27-.04,.45-.13,.54s-.27,.14-.54,.14h-.59l-.13-.53,.62,.02c.13,0,.19-.06,.19-.19v-.85h-2.46v-.49h5.4Zm-5.37-3.28h5.34v.51h-1.74v.36h1.43v1.32h-4.78v-1.32h1.4v-.36h-1.65v-.51Zm.35,2.49h4.59v.47h-4.59v-.47Zm1.3-.71v-.48h-.85v.48h.85Zm.53-1.26v.36h.88v-.36h-.88Zm0,.78v.48h.88v-.48h-.88Zm2.97,3.87c-.45-.26-1-.51-1.66-.76l.27-.47c.76,.28,1.31,.51,1.64,.68l-.25,.54Zm-.66-3.87h-.89v.48h.89v-.48Z"/><path class="d" d="M104.17,33.63c.57-.73,.98-1.54,1.26-2.46l.55,.16c-.17,.46-.32,.86-.46,1.18v4.16h-.56v-3.12c-.11,.19-.28,.43-.51,.73l-.27-.66Zm3.21-2.43c.04,.48,.1,1.01,.16,1.58l2.08-.12,.02,.53-2.04,.13c.07,.62,.23,1.23,.49,1.81,.25,.58,.51,.87,.75,.87,.14,0,.24-.37,.31-1.11l.53,.35c-.08,.95-.35,1.43-.82,1.43-.4,0-.78-.31-1.15-.94-.36-.62-.59-1.41-.7-2.37l-1.17,.08-.06-.57,1.16-.05c-.05-.45-.1-.98-.16-1.59l.59-.04Zm1.3,1.27c-.24-.35-.49-.65-.76-.89l.49-.3c.34,.32,.6,.6,.8,.85l-.52,.34Z"/><path class="d" d="M111.6,33.9l-.15,.59h1.05v.05c0,.48-.02,.88-.06,1.2-.05,.32-.13,.54-.26,.66-.13,.12-.43,.18-.89,.18h-.18l-.16-.56c.18,.02,.35,.03,.5,.03,.25,0,.39-.1,.42-.29,.04-.19,.07-.45,.08-.78h-1.16l.3-1.09h-.58v-.5h2.23v.5h-1.15Zm-.83-2.54h1.86v1.69h-1.86v-1.69Zm1.35,.44h-.83v.81h.83v-.81Zm2.41,.99v.46l.72-.04,.02,.44-.74,.04s0,.04,0,.06c0,.16,.08,.25,.25,.25h.98v.44h-1.1c-.41,0-.61-.22-.61-.65,0-.03,0-.06,0-.08l-.59,.03c-.01,1.21-.2,2.18-.56,2.9l-.45-.32c.34-.58,.5-1.67,.5-3.26v-.75h1.05v-1.15h.52v.34h1.15v.46h-1.15v.36h1.44c-.02,.47-.09,.83-.2,1.1l-.49-.11c.06-.12,.11-.29,.16-.53h-.91Zm-.23,1.88c-.03,.92-.23,1.59-.6,2.01l-.48-.3c.35-.35,.55-.94,.58-1.76l.5,.05Zm-.84-1.88v.51l.58-.02v-.49h-.58Zm1.66,1.88v1.28c0,.12,.05,.19,.15,.19h.12c.1,0,.15-.16,.15-.47,0-.15,0-.28-.01-.41l.49,.15v.04c0,.48-.03,.79-.1,.93-.07,.14-.19,.22-.36,.22h-.43c-.34,0-.51-.17-.51-.51v-1.4h.5Z"/></g><polygon class="d" points="108.43 12.46 105.73 11.74 101.69 11.86 100.6 12.8 100.04 13.7 100.04 19.99 102.51 19.4 103.6 15.36 104.23 13.96 106.46 13.96 108.43 12.46"/></g></svg>